<svg width="342" height="71" viewBox="0 0 342 71" fill="none" xmlns="http://www.w3.org/2000/svg">
<path d="M297.516 12.871C297.845 12.871 298.137 12.6516 298.247 12.3226C300.514 4.82796 309.398 3 326.507 3H341.387V12.871H322.742C307.606 12.871 301.391 16.5269 298.978 18.7204C298.613 19.1226 298.064 19.3785 297.516 19.4516C296.968 19.3785 296.456 19.1226 296.054 18.7204C293.641 16.5269 287.462 12.871 272.29 12.871H253.645V3H268.525C285.598 3 294.482 4.82796 296.748 12.3226C296.894 12.6151 297.15 12.8344 297.516 12.871ZM297.516 60.2882C297.041 60.2882 296.602 60.1419 296.236 59.8495C293.458 57.4366 285.525 51.9893 271.047 51.9893H253.645V61.8602H271.047C286.694 61.8602 291.447 68.3677 292.544 70.3785C292.763 70.7441 293.165 71 293.568 71H301.428C301.867 71 302.269 70.7806 302.488 70.3785C303.585 68.3677 308.337 61.8602 323.985 61.8602H341.387V51.9893H323.985C309.507 51.9893 301.574 57.4366 298.796 59.8495C298.43 60.1419 297.991 60.2882 297.516 60.2882Z" fill="#000000"/>
<path d="M99.0035 13V10.53H99.9535C100.847 10.53 100.999 10.302 100.999 9.352V5.59H99.1935V3.12H110.347V13H107.345V5.59H104.001V9.428C104.001 11.784 102.861 13 100.695 13H99.0035ZM113.541 8.535V5.59H112.116V3.12H116.543V8.535H113.541ZM118.452 13L119.839 5.59H118.167V3.12H124.19C127.838 3.12 128.75 4.298 128.75 7.68V13H123.715V10.53H125.748V7.49C125.748 6.027 125.387 5.59 123.848 5.59H122.841L121.454 13H118.452ZM131.317 13V5.59H129.892V3.12H134.319V13H131.317ZM136.013 13L136.374 10.34C136.659 8.212 137.248 7.433 138.844 6.749C137.856 5.533 136.811 4.336 135.709 3.12L139.243 3.139C140.364 4.412 141.333 5.628 142.34 6.996C142.853 6.825 143.081 6.502 143.195 5.59L143.537 3.12H146.558L146.254 5.191C145.931 7.376 145.209 8.155 143.803 8.63C144.829 10.036 145.798 11.556 146.729 13H143.328C142.435 11.461 141.523 10.017 140.364 8.402C139.623 8.744 139.452 9.2 139.338 10.435L139.091 13H136.013ZM149.799 13L152.44 5.59H147.481V0.554999H150.426V3.12H156.43V3.158L152.877 13H149.799ZM164.176 13V5.59H157.64V3.12H167.178V13H164.176ZM157.735 13V7.68H160.737V13H157.735ZM179.892 13V5.59H173.356V3.12H182.894V13H179.892ZM173.451 13V7.68H176.453V13H173.451ZM186.09 8.535V5.59H184.665V3.12H189.092V8.535H186.09ZM192.046 8.535V5.59H190.621V3.12H195.048V8.535H192.046ZM201.232 13V7.49C201.232 6.027 200.871 5.59 199.332 5.59H196.577V3.12H199.674C203.322 3.12 204.234 4.298 204.234 7.68V13H201.232ZM206.216 13V10.53H212.315V7.49C212.315 6.027 211.954 5.59 210.415 5.59H209.218V8.535H206.216V3.12H210.757C214.405 3.12 215.317 4.298 215.317 7.68V13H206.216ZM217.996 13L217.16 3.12H227.705L227.306 6.92C226.812 11.727 224.741 13 220.656 13H217.996ZM220.77 10.53H221.074C223.164 10.53 223.981 9.884 224.266 7.186L224.437 5.59H220.333L220.77 10.53ZM235.797 13V5.59H229.261V3.12H238.799V13H235.797ZM229.356 13V7.68H232.358V13H229.356Z" fill="#000000"/>
<path d="M47.6838 37.09C46.8318 37.09 46.0938 36.982 45.4698 36.766C44.8578 36.538 44.3838 36.178 44.0478 35.686C43.7118 35.182 43.5198 34.51 43.4718 33.67L43.1478 26.416H45.6858L45.9918 32.788C46.0158 33.28 46.0938 33.658 46.2258 33.922C46.3698 34.174 46.5738 34.348 46.8378 34.444C47.1018 34.528 47.4438 34.57 47.8638 34.57C48.3198 34.57 48.6438 34.69 48.8358 34.93C49.0278 35.158 49.1238 35.446 49.1238 35.794C49.1238 36.166 48.9978 36.478 48.7458 36.73C48.5058 36.97 48.1518 37.09 47.6838 37.09ZM44.3898 35.416C43.5858 35.596 42.8118 35.68 42.0678 35.668C41.3238 35.644 40.6578 35.512 40.0698 35.272C39.4818 35.02 39.0138 34.66 38.6658 34.192C38.3298 33.724 38.1618 33.13 38.1618 32.41C38.1618 31.774 38.2998 31.198 38.5758 30.682C38.8638 30.154 39.2598 29.692 39.7638 29.296C40.2798 28.9 40.8798 28.564 41.5638 28.288C42.2478 28.012 42.9918 27.802 43.7958 27.658L44.0478 30.214C43.5318 30.238 43.0638 30.31 42.6438 30.43C42.2358 30.538 41.8818 30.682 41.5818 30.862C41.2938 31.042 41.0718 31.246 40.9158 31.474C40.7598 31.69 40.6818 31.924 40.6818 32.176C40.6818 32.38 40.7538 32.548 40.8978 32.68C41.0418 32.812 41.2338 32.92 41.4738 33.004C41.7138 33.076 41.9898 33.118 42.3018 33.13C42.6138 33.142 42.9318 33.124 43.2558 33.076C43.5918 33.028 43.9218 32.95 44.2458 32.842L44.3898 35.416ZM44.4438 24.562C44.0958 24.562 43.7958 24.442 43.5438 24.202C43.3038 23.95 43.1838 23.656 43.1838 23.32C43.1838 22.972 43.3038 22.672 43.5438 22.42C43.7958 22.168 44.0958 22.042 44.4438 22.042C44.7798 22.042 45.0678 22.168 45.3078 22.42C45.5478 22.672 45.6678 22.972 45.6678 23.32C45.6678 23.656 45.5478 23.95 45.3078 24.202C45.0678 24.442 44.7798 24.562 44.4438 24.562ZM41.3298 24.544C40.9818 24.544 40.6818 24.424 40.4298 24.184C40.1898 23.932 40.0698 23.638 40.0698 23.302C40.0698 22.954 40.1898 22.654 40.4298 22.402C40.6818 22.15 40.9818 22.024 41.3298 22.024C41.6658 22.024 41.9538 22.15 42.1938 22.402C42.4338 22.654 42.5538 22.954 42.5538 23.302C42.5538 23.638 42.4338 23.932 42.1938 24.184C41.9538 24.424 41.6658 24.544 41.3298 24.544ZM47.6777 37.09L47.8577 34.57C48.2897 34.57 48.6617 34.528 48.9737 34.444C49.2857 34.36 49.5497 34.192 49.7657 33.94C49.9817 33.676 50.1617 33.292 50.3057 32.788C50.4617 32.284 50.5997 31.612 50.7197 30.772L53.0777 31.168C53.0537 31.348 53.0177 31.558 52.9697 31.798C52.9337 32.038 52.8977 32.284 52.8617 32.536C52.8377 32.776 52.8257 33.004 52.8257 33.22C52.8257 33.436 52.8677 33.628 52.9517 33.796C53.0357 33.964 53.1677 34.108 53.3477 34.228C53.5397 34.336 53.7857 34.42 54.0857 34.48C54.3977 34.54 54.7757 34.57 55.2197 34.57C55.6757 34.57 55.9997 34.69 56.1917 34.93C56.3837 35.158 56.4797 35.446 56.4797 35.794C56.4797 36.166 56.3537 36.478 56.1017 36.73C55.8617 36.97 55.5077 37.09 55.0397 37.09C54.4997 37.09 54.0077 37.048 53.5637 36.964C53.1317 36.88 52.7537 36.742 52.4297 36.55C52.1177 36.346 51.8597 36.082 51.6557 35.758C51.4637 35.422 51.3437 35.014 51.2957 34.534H52.1597C51.9437 35.11 51.6677 35.572 51.3317 35.92C51.0077 36.256 50.6417 36.508 50.2337 36.676C49.8257 36.844 49.3997 36.952 48.9557 37C48.5237 37.06 48.0977 37.09 47.6777 37.09ZM52.6997 41.266C52.3517 41.266 52.0517 41.14 51.7997 40.888C51.5597 40.648 51.4397 40.36 51.4397 40.024C51.4397 39.676 51.5597 39.376 51.7997 39.124C52.0517 38.872 52.3517 38.746 52.6997 38.746C53.0357 38.746 53.3237 38.872 53.5637 39.124C53.8037 39.376 53.9237 39.676 53.9237 40.024C53.9237 40.36 53.8037 40.648 53.5637 40.888C53.3237 41.14 53.0357 41.266 52.6997 41.266ZM49.5857 41.266C49.2377 41.266 48.9377 41.14 48.6857 40.888C48.4457 40.648 48.3257 40.36 48.3257 40.024C48.3257 39.676 48.4457 39.376 48.6857 39.124C48.9377 38.872 49.2377 38.746 49.5857 38.746C49.9217 38.746 50.2097 38.872 50.4497 39.124C50.6897 39.376 50.8097 39.676 50.8097 40.024C50.8097 40.36 50.6897 40.648 50.4497 40.888C50.2097 41.14 49.9217 41.266 49.5857 41.266ZM55.043 37.09L55.223 34.57C55.787 34.57 56.183 34.516 56.411 34.408C56.651 34.288 56.795 34.072 56.843 33.76C56.891 33.436 56.903 32.968 56.879 32.356L56.591 23.824H59.147L59.453 32.338C59.477 32.938 59.549 33.4 59.669 33.724C59.789 34.048 59.987 34.27 60.263 34.39C60.551 34.51 60.935 34.57 61.415 34.57C61.871 34.57 62.195 34.69 62.387 34.93C62.579 35.158 62.675 35.446 62.675 35.794C62.675 36.166 62.549 36.478 62.297 36.73C62.045 36.97 61.691 37.09 61.235 37.09C60.707 37.09 60.215 37.03 59.759 36.91C59.303 36.79 58.925 36.562 58.625 36.226C58.325 35.89 58.127 35.404 58.031 34.768L58.823 34.786C58.619 35.41 58.355 35.89 58.031 36.226C57.707 36.55 57.299 36.778 56.807 36.91C56.327 37.03 55.739 37.09 55.043 37.09ZM61.2305 37.09L61.4105 34.57C61.8425 34.57 62.2145 34.528 62.5265 34.444C62.8385 34.36 63.1025 34.192 63.3185 33.94C63.5345 33.676 63.7145 33.292 63.8585 32.788C64.0145 32.284 64.1525 31.612 64.2725 30.772L66.6305 31.168C66.6065 31.348 66.5705 31.558 66.5225 31.798C66.4865 32.038 66.4505 32.284 66.4145 32.536C66.3905 32.776 66.3785 33.004 66.3785 33.22C66.3785 33.436 66.4205 33.628 66.5045 33.796C66.5885 33.964 66.7205 34.108 66.9005 34.228C67.0925 34.336 67.3385 34.42 67.6385 34.48C67.9505 34.54 68.3285 34.57 68.7725 34.57C69.2285 34.57 69.5525 34.69 69.7445 34.93C69.9365 35.158 70.0325 35.446 70.0325 35.794C70.0325 36.166 69.9065 36.478 69.6545 36.73C69.4145 36.97 69.0605 37.09 68.5925 37.09C68.0525 37.09 67.5605 37.048 67.1165 36.964C66.6845 36.88 66.3065 36.742 65.9825 36.55C65.6705 36.346 65.4125 36.082 65.2085 35.758C65.0165 35.422 64.8965 35.014 64.8485 34.534H65.7125C65.4965 35.11 65.2205 35.572 64.8845 35.92C64.5605 36.256 64.1945 36.508 63.7865 36.676C63.3785 36.844 62.9525 36.952 62.5085 37C62.0765 37.06 61.6505 37.09 61.2305 37.09ZM66.2525 41.266C65.9045 41.266 65.6045 41.14 65.3525 40.888C65.1125 40.648 64.9925 40.36 64.9925 40.024C64.9925 39.676 65.1125 39.376 65.3525 39.124C65.6045 38.872 65.9045 38.746 66.2525 38.746C66.5885 38.746 66.8765 38.872 67.1165 39.124C67.3565 39.376 67.4765 39.676 67.4765 40.024C67.4765 40.36 67.3565 40.648 67.1165 40.888C66.8765 41.14 66.5885 41.266 66.2525 41.266ZM63.1385 41.266C62.7905 41.266 62.4905 41.14 62.2385 40.888C61.9985 40.648 61.8785 40.36 61.8785 40.024C61.8785 39.676 61.9985 39.376 62.2385 39.124C62.4905 38.872 62.7905 38.746 63.1385 38.746C63.4745 38.746 63.7625 38.872 64.0025 39.124C64.2425 39.376 64.3625 39.676 64.3625 40.024C64.3625 40.36 64.2425 40.648 64.0025 40.888C63.7625 41.14 63.4745 41.266 63.1385 41.266ZM68.5957 37.09L68.7757 34.57C69.3037 34.57 69.7177 34.534 70.0177 34.462C70.3297 34.39 70.5517 34.258 70.6837 34.066C70.8157 33.862 70.8817 33.574 70.8817 33.202C70.8817 32.866 70.8337 32.464 70.7377 31.996C70.6537 31.528 70.5397 31.042 70.3957 30.538C70.2517 30.034 70.1077 29.572 69.9637 29.152L72.4477 28.468C72.5917 28.876 72.7357 29.35 72.8797 29.89C73.0237 30.43 73.1437 30.988 73.2397 31.564C73.3477 32.128 73.4017 32.674 73.4017 33.202C73.4017 33.862 73.3177 34.42 73.1497 34.876C72.9817 35.32 72.7477 35.692 72.4477 35.992C72.1597 36.28 71.8117 36.508 71.4037 36.676C71.0077 36.832 70.5697 36.94 70.0897 37C69.6097 37.06 69.1117 37.09 68.5957 37.09ZM69.2977 26.596L68.9917 25.336C69.4117 25.264 69.7237 25.204 69.9277 25.156C70.1437 25.108 70.3717 25.054 70.6117 24.994L70.4317 25.444C70.1197 25.336 69.8197 25.126 69.5317 24.814C69.2557 24.49 69.1177 24.124 69.1177 23.716C69.1177 23.284 69.2137 22.936 69.4057 22.672C69.5977 22.408 69.8437 22.216 70.1437 22.096C70.4437 21.976 70.7557 21.916 71.0797 21.916C71.2597 21.916 71.4277 21.928 71.5837 21.952C71.7517 21.976 71.9017 22.012 72.0337 22.06L71.8897 23.356C71.7697 23.332 71.6497 23.308 71.5297 23.284C71.4097 23.26 71.2777 23.248 71.1337 23.248C70.9777 23.248 70.8337 23.302 70.7017 23.41C70.5817 23.506 70.5217 23.626 70.5217 23.77C70.5217 23.974 70.5937 24.154 70.7377 24.31C70.8817 24.466 71.0497 24.592 71.2417 24.688C71.4457 24.772 71.6137 24.82 71.7457 24.832L70.7557 24.94C71.0797 24.856 71.3857 24.772 71.6737 24.688C71.9617 24.592 72.2317 24.496 72.4837 24.4L72.8437 25.606C72.5437 25.714 72.1897 25.834 71.7817 25.966C71.3857 26.086 70.9717 26.2 70.5397 26.308C70.1197 26.416 69.7057 26.512 69.2977 26.596ZM75.7486 37L75.3706 23.824H77.8906L78.2686 37H75.7486ZM79.0614 41.158L78.1434 38.926C78.7794 38.71 79.3614 38.458 79.8894 38.17C80.4294 37.882 80.8974 37.564 81.2934 37.216C81.6894 36.868 81.9954 36.49 82.2114 36.082C82.4274 35.662 82.5354 35.212 82.5354 34.732C82.5354 34.228 82.4214 33.676 82.1934 33.076C81.9654 32.476 81.6894 31.864 81.3654 31.24L83.7234 30.106C83.9394 30.478 84.1254 30.88 84.2814 31.312C84.4494 31.732 84.5874 32.11 84.6954 32.446C84.8034 32.782 84.8754 33.01 84.9114 33.13C85.0794 33.706 85.3074 34.09 85.5954 34.282C85.8954 34.474 86.3754 34.57 87.0354 34.57C87.4914 34.57 87.8154 34.69 88.0074 34.93C88.2114 35.158 88.3134 35.446 88.3134 35.794C88.3134 36.166 88.1874 36.478 87.9354 36.73C87.6834 36.97 87.3234 37.09 86.8554 37.09C86.3634 37.09 85.9314 37.018 85.5594 36.874C85.1874 36.73 84.8874 36.52 84.6594 36.244C84.4434 35.968 84.3054 35.644 84.2454 35.272L84.9114 35.65C84.8394 36.286 84.6294 36.886 84.2814 37.45C83.9454 38.026 83.5074 38.554 82.9674 39.034C82.4274 39.514 81.8214 39.934 81.1494 40.294C80.4774 40.654 79.7814 40.942 79.0614 41.158ZM86.877 37.09L87.057 34.57C87.453 34.57 87.777 34.54 88.029 34.48C88.281 34.408 88.485 34.258 88.641 34.03C88.809 33.79 88.953 33.436 89.073 32.968C89.205 32.488 89.349 31.84 89.505 31.024L91.845 31.456C91.809 31.636 91.767 31.846 91.719 32.086C91.671 32.326 91.629 32.572 91.593 32.824C91.557 33.064 91.539 33.28 91.539 33.472C91.539 33.808 91.647 34.078 91.863 34.282C92.079 34.474 92.487 34.57 93.087 34.57C93.387 34.57 93.645 34.54 93.861 34.48C94.089 34.408 94.281 34.258 94.437 34.03C94.605 33.79 94.749 33.424 94.869 32.932C95.001 32.428 95.127 31.75 95.247 30.898L97.623 31.276C97.575 31.552 97.527 31.846 97.479 32.158C97.431 32.47 97.389 32.758 97.353 33.022C97.317 33.286 97.299 33.502 97.299 33.67C97.299 33.826 97.341 33.976 97.425 34.12C97.521 34.252 97.689 34.36 97.929 34.444C98.181 34.528 98.535 34.57 98.991 34.57C99.315 34.57 99.591 34.528 99.819 34.444C100.059 34.36 100.239 34.222 100.359 34.03C100.491 33.838 100.557 33.586 100.557 33.274C100.557 32.83 100.455 32.248 100.251 31.528C100.047 30.808 99.807 30.052 99.531 29.26L102.069 28.504C102.261 29.02 102.429 29.572 102.573 30.16C102.729 30.736 102.849 31.3 102.933 31.852C103.029 32.392 103.077 32.866 103.077 33.274C103.077 33.886 102.981 34.432 102.789 34.912C102.597 35.38 102.327 35.776 101.979 36.1C101.631 36.424 101.217 36.67 100.737 36.838C100.257 37.006 99.729 37.09 99.153 37.09C98.457 37.09 97.887 37.024 97.443 36.892C96.999 36.748 96.657 36.514 96.417 36.19C96.189 35.854 96.039 35.398 95.967 34.822H96.579C96.327 35.53 96.045 36.046 95.733 36.37C95.421 36.682 95.049 36.88 94.617 36.964C94.197 37.048 93.669 37.09 93.033 37.09C92.637 37.09 92.229 37.048 91.809 36.964C91.401 36.868 91.035 36.652 90.711 36.316C90.387 35.98 90.147 35.458 89.991 34.75L90.963 34.714C90.711 35.422 90.381 35.944 89.973 36.28C89.577 36.616 89.121 36.838 88.605 36.946C88.089 37.042 87.513 37.09 86.877 37.09ZM111.072 27.352C111.072 26.956 111.048 26.56 111 26.164C110.964 25.768 110.916 25.396 110.856 25.048C110.796 24.688 110.742 24.376 110.694 24.112L113.214 23.752C113.262 23.992 113.31 24.31 113.358 24.706C113.406 25.102 113.448 25.522 113.484 25.966C113.52 26.398 113.538 26.812 113.538 27.208C113.538 27.832 113.484 28.42 113.376 28.972C113.268 29.524 113.106 30.046 112.89 30.538C112.674 31.018 112.404 31.48 112.08 31.924L111.756 32.356C111.444 32.74 111.078 33.118 110.658 33.49C110.25 33.862 109.8 34.222 109.308 34.57H110.478C110.886 34.57 111.198 34.546 111.414 34.498C111.63 34.45 111.774 34.384 111.846 34.3C111.93 34.204 111.972 34.096 111.972 33.976C111.972 33.76 111.786 33.442 111.414 33.022C111.042 32.59 110.526 32.098 109.866 31.546C109.206 30.982 108.432 30.388 107.544 29.764C106.668 29.128 105.72 28.492 104.7 27.856L106.014 25.93C107.43 26.806 108.624 27.61 109.596 28.342C110.58 29.074 111.384 29.74 112.008 30.34C112.644 30.94 113.136 31.486 113.484 31.978C113.832 32.47 114.072 32.914 114.204 33.31C114.336 33.694 114.402 34.042 114.402 34.354C114.402 34.702 114.348 35.038 114.24 35.362C114.132 35.674 113.958 35.956 113.718 36.208C113.478 36.448 113.166 36.64 112.782 36.784C112.398 36.928 111.924 37 111.36 37H106.068V34.588C107.304 33.7 108.282 32.86 109.002 32.068C109.734 31.276 110.262 30.496 110.586 29.728C110.91 28.96 111.072 28.168 111.072 27.352ZM105.816 42.562L105.51 41.302C105.93 41.23 106.242 41.17 106.446 41.122C106.662 41.074 106.89 41.02 107.13 40.96L106.95 41.41C106.638 41.302 106.338 41.086 106.05 40.762C105.774 40.45 105.636 40.09 105.636 39.682C105.636 39.25 105.732 38.902 105.924 38.638C106.116 38.374 106.362 38.182 106.662 38.062C106.962 37.942 107.274 37.882 107.598 37.882C107.778 37.882 107.946 37.894 108.102 37.918C108.27 37.942 108.42 37.978 108.552 38.026L108.408 39.322C108.288 39.298 108.168 39.274 108.048 39.25C107.928 39.226 107.796 39.214 107.652 39.214C107.496 39.214 107.352 39.262 107.22 39.358C107.1 39.466 107.04 39.592 107.04 39.736C107.04 39.94 107.112 40.12 107.256 40.276C107.4 40.432 107.568 40.552 107.76 40.636C107.964 40.732 108.132 40.786 108.264 40.798L107.274 40.906C107.598 40.822 107.904 40.732 108.192 40.636C108.48 40.552 108.75 40.462 109.002 40.366L109.362 41.572C109.062 41.68 108.708 41.794 108.3 41.914C107.904 42.046 107.49 42.166 107.058 42.274C106.638 42.382 106.224 42.478 105.816 42.562ZM116.794 37L116.416 23.824H118.936L119.314 37H116.794ZM134.063 37.09C133.211 37.09 132.473 36.982 131.849 36.766C131.237 36.538 130.763 36.178 130.427 35.686C130.091 35.182 129.899 34.51 129.851 33.67L129.527 26.416H132.065L132.371 32.788C132.395 33.28 132.473 33.658 132.605 33.922C132.749 34.174 132.953 34.348 133.217 34.444C133.481 34.528 133.823 34.57 134.243 34.57C134.699 34.57 135.023 34.69 135.215 34.93C135.407 35.158 135.503 35.446 135.503 35.794C135.503 36.166 135.377 36.478 135.125 36.73C134.885 36.97 134.531 37.09 134.063 37.09ZM130.769 35.416C129.965 35.596 129.191 35.68 128.447 35.668C127.703 35.644 127.037 35.512 126.449 35.272C125.861 35.02 125.393 34.66 125.045 34.192C124.709 33.724 124.541 33.13 124.541 32.41C124.541 31.774 124.679 31.198 124.955 30.682C125.243 30.154 125.639 29.692 126.143 29.296C126.659 28.9 127.259 28.564 127.943 28.288C128.627 28.012 129.371 27.802 130.175 27.658L130.427 30.214C129.911 30.238 129.443 30.31 129.023 30.43C128.615 30.538 128.261 30.682 127.961 30.862C127.673 31.042 127.451 31.246 127.295 31.474C127.139 31.69 127.061 31.924 127.061 32.176C127.061 32.38 127.133 32.548 127.277 32.68C127.421 32.812 127.613 32.92 127.853 33.004C128.093 33.076 128.369 33.118 128.681 33.13C128.993 33.142 129.311 33.124 129.635 33.076C129.971 33.028 130.301 32.95 130.625 32.842L130.769 35.416ZM130.823 24.562C130.475 24.562 130.175 24.442 129.923 24.202C129.683 23.95 129.563 23.656 129.563 23.32C129.563 22.972 129.683 22.672 129.923 22.42C130.175 22.168 130.475 22.042 130.823 22.042C131.159 22.042 131.447 22.168 131.687 22.42C131.927 22.672 132.047 22.972 132.047 23.32C132.047 23.656 131.927 23.95 131.687 24.202C131.447 24.442 131.159 24.562 130.823 24.562ZM127.709 24.544C127.361 24.544 127.061 24.424 126.809 24.184C126.569 23.932 126.449 23.638 126.449 23.302C126.449 22.954 126.569 22.654 126.809 22.402C127.061 22.15 127.361 22.024 127.709 22.024C128.045 22.024 128.333 22.15 128.573 22.402C128.813 22.654 128.933 22.954 128.933 23.302C128.933 23.638 128.813 23.932 128.573 24.184C128.333 24.424 128.045 24.544 127.709 24.544ZM134.057 37.09L134.237 34.57C134.669 34.57 135.041 34.528 135.353 34.444C135.665 34.36 135.929 34.192 136.145 33.94C136.361 33.676 136.541 33.292 136.685 32.788C136.841 32.284 136.979 31.612 137.099 30.772L139.457 31.168C139.433 31.348 139.397 31.558 139.349 31.798C139.313 32.038 139.277 32.284 139.241 32.536C139.217 32.776 139.205 33.004 139.205 33.22C139.205 33.436 139.247 33.628 139.331 33.796C139.415 33.964 139.547 34.108 139.727 34.228C139.919 34.336 140.165 34.42 140.465 34.48C140.777 34.54 141.155 34.57 141.599 34.57C142.055 34.57 142.379 34.69 142.571 34.93C142.763 35.158 142.859 35.446 142.859 35.794C142.859 36.166 142.733 36.478 142.481 36.73C142.241 36.97 141.887 37.09 141.419 37.09C140.879 37.09 140.387 37.048 139.943 36.964C139.511 36.88 139.133 36.742 138.809 36.55C138.497 36.346 138.239 36.082 138.035 35.758C137.843 35.422 137.723 35.014 137.675 34.534H138.539C138.323 35.11 138.047 35.572 137.711 35.92C137.387 36.256 137.021 36.508 136.613 36.676C136.205 36.844 135.779 36.952 135.335 37C134.903 37.06 134.477 37.09 134.057 37.09ZM139.079 41.266C138.731 41.266 138.431 41.14 138.179 40.888C137.939 40.648 137.819 40.36 137.819 40.024C137.819 39.676 137.939 39.376 138.179 39.124C138.431 38.872 138.731 38.746 139.079 38.746C139.415 38.746 139.703 38.872 139.943 39.124C140.183 39.376 140.303 39.676 140.303 40.024C140.303 40.36 140.183 40.648 139.943 40.888C139.703 41.14 139.415 41.266 139.079 41.266ZM135.965 41.266C135.617 41.266 135.317 41.14 135.065 40.888C134.825 40.648 134.705 40.36 134.705 40.024C134.705 39.676 134.825 39.376 135.065 39.124C135.317 38.872 135.617 38.746 135.965 38.746C136.301 38.746 136.589 38.872 136.829 39.124C137.069 39.376 137.189 39.676 137.189 40.024C137.189 40.36 137.069 40.648 136.829 40.888C136.589 41.14 136.301 41.266 135.965 41.266ZM141.422 37.09L141.602 34.57C142.058 34.57 142.418 34.528 142.682 34.444C142.958 34.36 143.174 34.192 143.33 33.94C143.498 33.676 143.636 33.292 143.744 32.788C143.864 32.284 143.984 31.612 144.104 30.772L146.462 31.168C146.438 31.348 146.402 31.558 146.354 31.798C146.318 32.038 146.282 32.284 146.246 32.536C146.222 32.776 146.21 33.004 146.21 33.22C146.21 33.508 146.27 33.754 146.39 33.958C146.522 34.15 146.75 34.3 147.074 34.408C147.41 34.516 147.89 34.57 148.514 34.57C148.97 34.57 149.294 34.69 149.486 34.93C149.678 35.158 149.774 35.446 149.774 35.794C149.774 36.166 149.648 36.478 149.396 36.73C149.156 36.97 148.802 37.09 148.334 37.09C147.506 37.09 146.834 37.012 146.318 36.856C145.802 36.7 145.418 36.436 145.166 36.064C144.914 35.692 144.752 35.182 144.68 34.534H145.544C145.328 35.11 145.076 35.572 144.788 35.92C144.5 36.256 144.176 36.508 143.816 36.676C143.456 36.844 143.072 36.952 142.664 37C142.268 37.06 141.854 37.09 141.422 37.09ZM145.094 28.936C144.722 28.936 144.404 28.81 144.14 28.558C143.888 28.306 143.762 27.994 143.762 27.622C143.762 27.25 143.888 26.932 144.14 26.668C144.404 26.404 144.722 26.272 145.094 26.272C145.454 26.272 145.76 26.404 146.012 26.668C146.276 26.932 146.408 27.25 146.408 27.622C146.408 27.994 146.276 28.306 146.012 28.558C145.76 28.81 145.454 28.936 145.094 28.936ZM148.33 37.09L148.51 34.57H152.542C153.67 34.57 154.606 34.528 155.35 34.444C156.106 34.36 156.706 34.24 157.15 34.084C157.594 33.916 157.906 33.724 158.086 33.508C158.278 33.292 158.374 33.058 158.374 32.806C158.374 32.578 158.32 32.362 158.212 32.158C158.104 31.942 157.942 31.768 157.726 31.636C157.51 31.504 157.228 31.438 156.88 31.438C156.436 31.438 155.992 31.546 155.548 31.762C155.104 31.966 154.672 32.248 154.252 32.608C153.832 32.956 153.43 33.346 153.046 33.778C152.674 34.21 152.332 34.648 152.02 35.092L149.302 34.714C149.806 33.934 150.352 33.196 150.94 32.5C151.54 31.792 152.17 31.174 152.83 30.646C153.502 30.106 154.192 29.686 154.9 29.386C155.62 29.074 156.352 28.918 157.096 28.918C157.888 28.918 158.566 29.08 159.13 29.404C159.694 29.728 160.126 30.172 160.426 30.736C160.738 31.3 160.894 31.954 160.894 32.698C160.894 33.478 160.672 34.18 160.228 34.804C159.796 35.428 159.058 35.944 158.014 36.352C157.57 36.52 157.09 36.658 156.574 36.766C156.058 36.874 155.452 36.952 154.756 37C154.06 37.06 153.226 37.09 152.254 37.09H148.33ZM150.202 35.254L149.824 23.824H152.344L152.668 32.464L150.202 35.254ZM162.628 41.14L162.106 38.62C162.958 38.512 163.702 38.38 164.338 38.224C164.974 38.08 165.508 37.876 165.94 37.612C166.372 37.348 166.696 36.988 166.912 36.532C167.128 36.064 167.236 35.464 167.236 34.732C167.236 34.024 167.128 33.46 166.912 33.04C166.696 32.62 166.408 32.41 166.048 32.41C165.796 32.41 165.586 32.5 165.418 32.68C165.25 32.848 165.124 33.052 165.04 33.292C164.968 33.52 164.932 33.724 164.932 33.904C164.932 34.012 164.962 34.126 165.022 34.246C165.082 34.366 165.214 34.468 165.418 34.552C165.622 34.636 165.94 34.684 166.372 34.696C166.816 34.708 167.416 34.666 168.172 34.57H171.196C171.652 34.57 171.976 34.69 172.168 34.93C172.372 35.158 172.474 35.446 172.474 35.794C172.474 36.166 172.348 36.478 172.096 36.73C171.844 36.97 171.484 37.09 171.016 37.09H166.066C165.31 37.09 164.662 37 164.122 36.82C163.582 36.64 163.168 36.352 162.88 35.956C162.592 35.548 162.448 35.008 162.448 34.336C162.448 33.796 162.538 33.256 162.718 32.716C162.91 32.176 163.174 31.684 163.51 31.24C163.846 30.784 164.236 30.424 164.68 30.16C165.136 29.884 165.628 29.746 166.156 29.746C166.876 29.746 167.506 29.968 168.046 30.412C168.586 30.856 169.006 31.444 169.306 32.176C169.618 32.908 169.774 33.706 169.774 34.57C169.774 35.926 169.486 37.078 168.91 38.026C168.334 38.974 167.512 39.706 166.444 40.222C165.376 40.75 164.104 41.056 162.628 41.14ZM171.041 37.09L171.221 34.57C171.773 34.57 172.169 34.516 172.409 34.408C172.649 34.288 172.793 34.072 172.841 33.76C172.889 33.436 172.901 32.968 172.877 32.356L172.553 23.824H175.091L175.451 32.536C175.475 33.232 175.445 33.862 175.361 34.426C175.289 34.978 175.103 35.452 174.803 35.848C174.515 36.244 174.065 36.55 173.453 36.766C172.853 36.982 172.049 37.09 171.041 37.09ZM177.825 37L177.447 23.824H179.967L180.345 37H177.825ZM195.094 37.09C194.242 37.09 193.504 36.982 192.88 36.766C192.268 36.538 191.794 36.178 191.458 35.686C191.122 35.182 190.93 34.51 190.882 33.67L190.558 26.416H193.096L193.402 32.788C193.426 33.28 193.504 33.658 193.636 33.922C193.78 34.174 193.984 34.348 194.248 34.444C194.512 34.528 194.854 34.57 195.274 34.57C195.73 34.57 196.054 34.69 196.246 34.93C196.438 35.158 196.534 35.446 196.534 35.794C196.534 36.166 196.408 36.478 196.156 36.73C195.916 36.97 195.562 37.09 195.094 37.09ZM191.8 35.416C190.996 35.596 190.222 35.68 189.478 35.668C188.734 35.644 188.068 35.512 187.48 35.272C186.892 35.02 186.424 34.66 186.076 34.192C185.74 33.724 185.572 33.13 185.572 32.41C185.572 31.774 185.71 31.198 185.986 30.682C186.274 30.154 186.67 29.692 187.174 29.296C187.69 28.9 188.29 28.564 188.974 28.288C189.658 28.012 190.402 27.802 191.206 27.658L191.458 30.214C190.942 30.238 190.474 30.31 190.054 30.43C189.646 30.538 189.292 30.682 188.992 30.862C188.704 31.042 188.482 31.246 188.326 31.474C188.17 31.69 188.092 31.924 188.092 32.176C188.092 32.38 188.164 32.548 188.308 32.68C188.452 32.812 188.644 32.92 188.884 33.004C189.124 33.076 189.4 33.118 189.712 33.13C190.024 33.142 190.342 33.124 190.666 33.076C191.002 33.028 191.332 32.95 191.656 32.842L191.8 35.416ZM191.854 24.562C191.506 24.562 191.206 24.442 190.954 24.202C190.714 23.95 190.594 23.656 190.594 23.32C190.594 22.972 190.714 22.672 190.954 22.42C191.206 22.168 191.506 22.042 191.854 22.042C192.19 22.042 192.478 22.168 192.718 22.42C192.958 22.672 193.078 22.972 193.078 23.32C193.078 23.656 192.958 23.95 192.718 24.202C192.478 24.442 192.19 24.562 191.854 24.562ZM188.74 24.544C188.392 24.544 188.092 24.424 187.84 24.184C187.6 23.932 187.48 23.638 187.48 23.302C187.48 22.954 187.6 22.654 187.84 22.402C188.092 22.15 188.392 22.024 188.74 22.024C189.076 22.024 189.364 22.15 189.604 22.402C189.844 22.654 189.964 22.954 189.964 23.302C189.964 23.638 189.844 23.932 189.604 24.184C189.364 24.424 189.076 24.544 188.74 24.544ZM195.088 37.09L195.268 34.57C195.724 34.57 196.084 34.528 196.348 34.444C196.624 34.36 196.84 34.192 196.996 33.94C197.164 33.676 197.302 33.292 197.41 32.788C197.53 32.284 197.65 31.612 197.77 30.772L200.128 31.168C200.104 31.348 200.068 31.558 200.02 31.798C199.984 32.038 199.948 32.284 199.912 32.536C199.888 32.776 199.876 33.004 199.876 33.22C199.876 33.508 199.936 33.754 200.056 33.958C200.188 34.15 200.416 34.3 200.74 34.408C201.076 34.516 201.556 34.57 202.18 34.57C202.636 34.57 202.96 34.69 203.152 34.93C203.344 35.158 203.44 35.446 203.44 35.794C203.44 36.166 203.314 36.478 203.062 36.73C202.822 36.97 202.468 37.09 202 37.09C201.172 37.09 200.5 37.012 199.984 36.856C199.468 36.7 199.084 36.436 198.832 36.064C198.58 35.692 198.418 35.182 198.346 34.534H199.21C198.994 35.11 198.742 35.572 198.454 35.92C198.166 36.256 197.842 36.508 197.482 36.676C197.122 36.844 196.738 36.952 196.33 37C195.934 37.06 195.52 37.09 195.088 37.09ZM198.292 41.23C197.944 41.23 197.644 41.11 197.392 40.87C197.152 40.63 197.032 40.336 197.032 39.988C197.032 39.64 197.152 39.334 197.392 39.07C197.644 38.818 197.944 38.692 198.292 38.692C198.64 38.692 198.934 38.818 199.174 39.07C199.426 39.334 199.552 39.64 199.552 39.988C199.552 40.336 199.426 40.63 199.174 40.87C198.934 41.11 198.64 41.23 198.292 41.23ZM201.996 37.09L202.176 34.57C202.608 34.57 202.98 34.528 203.292 34.444C203.604 34.36 203.868 34.192 204.084 33.94C204.3 33.676 204.48 33.292 204.624 32.788C204.78 32.284 204.918 31.612 205.038 30.772L207.396 31.168C207.372 31.348 207.336 31.558 207.288 31.798C207.252 32.038 207.216 32.284 207.18 32.536C207.156 32.776 207.144 33.004 207.144 33.22C207.144 33.436 207.186 33.628 207.27 33.796C207.354 33.964 207.486 34.108 207.666 34.228C207.858 34.336 208.104 34.42 208.404 34.48C208.716 34.54 209.094 34.57 209.538 34.57C209.994 34.57 210.318 34.69 210.51 34.93C210.702 35.158 210.798 35.446 210.798 35.794C210.798 36.166 210.672 36.478 210.42 36.73C210.18 36.97 209.826 37.09 209.358 37.09C208.818 37.09 208.326 37.048 207.882 36.964C207.45 36.88 207.072 36.742 206.748 36.55C206.436 36.346 206.178 36.082 205.974 35.758C205.782 35.422 205.662 35.014 205.614 34.534H206.478C206.262 35.11 205.986 35.572 205.65 35.92C205.326 36.256 204.96 36.508 204.552 36.676C204.144 36.844 203.718 36.952 203.274 37C202.842 37.06 202.416 37.09 201.996 37.09ZM207.774 29.152C207.426 29.152 207.126 29.032 206.874 28.792C206.634 28.54 206.514 28.246 206.514 27.91C206.514 27.562 206.634 27.262 206.874 27.01C207.126 26.758 207.426 26.632 207.774 26.632C208.11 26.632 208.398 26.758 208.638 27.01C208.878 27.262 208.998 27.562 208.998 27.91C208.998 28.246 208.878 28.54 208.638 28.792C208.398 29.032 208.11 29.152 207.774 29.152ZM204.66 29.134C204.312 29.134 204.012 29.014 203.76 28.774C203.52 28.522 203.4 28.228 203.4 27.892C203.4 27.544 203.52 27.244 203.76 26.992C204.012 26.74 204.312 26.614 204.66 26.614C204.996 26.614 205.284 26.74 205.524 26.992C205.764 27.244 205.884 27.544 205.884 27.892C205.884 28.228 205.764 28.522 205.524 28.774C205.284 29.014 204.996 29.134 204.66 29.134ZM209.361 37.09L209.541 34.57H212.061C212.481 34.57 212.799 34.546 213.015 34.498C213.243 34.45 213.399 34.378 213.483 34.282C213.567 34.174 213.609 34.048 213.609 33.904C213.609 33.688 213.513 33.436 213.321 33.148C213.141 32.86 212.901 32.56 212.601 32.248C212.313 31.936 212.007 31.624 211.683 31.312C211.359 30.988 211.047 30.688 210.747 30.412C210.459 30.136 210.219 29.896 210.027 29.692C209.847 29.476 209.757 29.32 209.757 29.224C209.757 28.888 209.775 28.624 209.811 28.432C209.847 28.228 209.895 28.066 209.955 27.946C210.027 27.826 210.105 27.724 210.189 27.64C210.393 27.436 210.699 27.208 211.107 26.956C211.515 26.692 211.995 26.416 212.547 26.128C213.111 25.828 213.741 25.516 214.437 25.192C215.133 24.856 215.871 24.508 216.651 24.148L217.677 26.344C216.885 26.692 216.177 27.016 215.553 27.316C214.941 27.604 214.389 27.874 213.897 28.126C213.417 28.366 212.985 28.594 212.601 28.81C212.229 29.026 211.893 29.23 211.593 29.422L211.773 28.09C212.289 28.534 212.757 28.954 213.177 29.35C213.597 29.746 213.987 30.142 214.347 30.538C214.707 30.934 215.043 31.342 215.355 31.762C215.679 32.182 215.991 32.638 216.291 33.13C216.555 33.55 216.825 33.862 217.101 34.066C217.389 34.27 217.665 34.408 217.929 34.48C218.205 34.54 218.451 34.57 218.667 34.57C219.123 34.57 219.447 34.69 219.639 34.93C219.843 35.158 219.945 35.446 219.945 35.794C219.945 36.166 219.819 36.478 219.567 36.73C219.315 36.97 218.955 37.09 218.487 37.09C218.091 37.09 217.665 37.024 217.209 36.892C216.753 36.748 216.327 36.52 215.931 36.208C215.535 35.896 215.235 35.47 215.031 34.93L216.003 35.002C215.823 35.386 215.607 35.716 215.355 35.992C215.115 36.256 214.827 36.472 214.491 36.64C214.155 36.796 213.771 36.91 213.339 36.982C212.907 37.054 212.421 37.09 211.881 37.09H209.361ZM218.502 37.09L218.682 34.57C218.982 34.57 219.21 34.51 219.366 34.39C219.522 34.27 219.678 34.06 219.834 33.76C219.99 33.46 220.206 33.052 220.482 32.536C220.782 31.96 221.094 31.48 221.418 31.096C221.742 30.7 222.066 30.388 222.39 30.16C222.726 29.92 223.056 29.752 223.38 29.656C223.716 29.548 224.046 29.494 224.37 29.494C224.814 29.494 225.228 29.59 225.612 29.782C226.008 29.962 226.386 30.28 226.746 30.736C227.106 31.18 227.448 31.792 227.772 32.572C228 33.112 228.228 33.526 228.456 33.814C228.684 34.102 228.918 34.3 229.158 34.408C229.41 34.516 229.662 34.57 229.914 34.57C230.37 34.57 230.694 34.69 230.886 34.93C231.078 35.158 231.174 35.446 231.174 35.794C231.174 36.166 231.048 36.478 230.796 36.73C230.544 36.97 230.19 37.09 229.734 37.09C229.146 37.09 228.612 36.994 228.132 36.802C227.652 36.61 227.274 36.322 226.998 35.938L227.52 35.542C227.412 35.794 227.25 36.058 227.034 36.334C226.83 36.61 226.56 36.844 226.224 37.036C225.9 37.228 225.51 37.324 225.054 37.324C224.754 37.324 224.4 37.264 223.992 37.144C223.596 37.036 223.182 36.85 222.75 36.586C222.33 36.31 221.94 35.938 221.58 35.47C221.352 35.89 221.1 36.22 220.824 36.46C220.548 36.688 220.224 36.85 219.852 36.946C219.48 37.042 219.03 37.09 218.502 37.09ZM222.624 33.346C222.744 33.526 222.888 33.706 223.056 33.886C223.224 34.066 223.41 34.228 223.614 34.372C223.818 34.504 224.034 34.612 224.262 34.696C224.502 34.78 224.736 34.822 224.964 34.822C225.204 34.822 225.402 34.732 225.558 34.552C225.714 34.36 225.72 34.078 225.576 33.706C225.516 33.55 225.432 33.376 225.324 33.184C225.228 32.98 225.114 32.788 224.982 32.608C224.862 32.428 224.724 32.278 224.568 32.158C224.424 32.038 224.274 31.978 224.118 31.978C223.962 31.978 223.8 32.026 223.632 32.122C223.464 32.218 223.296 32.368 223.128 32.572C222.96 32.764 222.792 33.022 222.624 33.346ZM229.734 37.09L229.914 34.57C230.466 34.57 230.862 34.516 231.102 34.408C231.342 34.288 231.486 34.072 231.534 33.76C231.582 33.436 231.594 32.968 231.57 32.356L231.246 23.824H233.784L234.144 32.536C234.168 33.232 234.138 33.862 234.054 34.426C233.982 34.978 233.796 35.452 233.496 35.848C233.208 36.244 232.758 36.55 232.146 36.766C231.546 36.982 230.742 37.09 229.734 37.09ZM236.518 37L236.14 23.824H238.66L239.038 37H236.518Z" fill="#000000"/>
<path d="M4.18907 62V53.526H1.33907V51.17H10.0791V53.526H7.22907V62H4.18907ZM11.6199 62V49.555H14.4699V54.4C15.1539 53.488 16.1419 53.089 17.2629 53.089C19.0869 53.089 20.5119 54.096 20.5119 57.06V62H17.6619V57.25C17.6619 55.958 17.1679 55.369 16.2749 55.369C15.2299 55.369 14.4889 56.281 14.4699 58.618V62H11.6199ZM26.8806 62.171C23.7076 62.171 21.8646 61.202 21.8646 57.592C21.8646 54.533 23.6886 53.07 26.5766 53.07C29.1416 53.07 30.7186 54.324 30.7186 56.965C30.7186 57.402 30.6806 57.858 30.6236 58.314H24.8286C25.0186 59.72 25.8356 60.005 27.3176 60.005C28.3056 60.005 29.2556 59.853 30.2436 59.587V61.658C28.9706 62.038 27.7356 62.171 26.8806 62.171ZM26.4246 55.122C25.7216 55.122 25.0756 55.616 24.8476 56.699H27.7546C27.6596 55.54 27.1656 55.122 26.4246 55.122ZM36.5401 62V51.17H39.0101L44.1401 58.029L43.9311 55.445V51.17H46.5911V62H44.1211L39.0101 55.445L39.2001 57.535V62H36.5401ZM51.2677 62.152C49.3867 62.133 48.3987 61.088 48.3987 59.796C48.3987 57.668 50.1657 56.68 52.3507 56.68C52.9777 56.68 53.3957 56.718 53.8327 56.813C53.7757 55.597 53.2627 55.236 51.9897 55.236C51.0967 55.236 50.0707 55.369 49.1207 55.711V53.659C50.3367 53.241 51.5527 53.108 52.4077 53.108C55.3337 53.108 56.6827 54.248 56.6827 57.022V62H53.8327V61.069C53.2247 61.772 52.3317 62.171 51.2677 62.152ZM51.2487 59.302C51.2487 59.872 51.6667 60.214 52.2747 60.214C53.1867 60.214 53.8137 59.606 53.8327 58.561V58.314C53.4337 58.219 53.0727 58.181 52.6167 58.181C51.7807 58.181 51.2487 58.58 51.2487 59.302ZM62.4189 62.057C60.4239 62.057 58.9799 61.164 58.9799 58.903V55.236H57.7069V53.26H58.9799V50.98H61.8299V53.26H64.0149V55.236H61.8299V58.618C61.8299 59.568 62.1339 59.929 62.8749 59.929C63.2359 59.929 63.7109 59.91 64.0149 59.872V61.905C63.5969 62 62.9129 62.057 62.4189 62.057ZM65.5557 51.93V49.555H68.4057V51.93H65.5557ZM65.5557 62V53.26H68.4057V62H65.5557ZM74.6694 62.095C71.8764 62.095 69.9954 60.651 69.9954 57.592C69.9954 54.533 71.8954 53.07 74.7644 53.07C77.5764 53.07 79.4194 54.514 79.4194 57.535C79.4194 60.613 77.5384 62.095 74.6694 62.095ZM74.7264 59.929C75.7904 59.929 76.4744 59.226 76.4744 57.611C76.4744 55.977 75.7904 55.236 74.7264 55.236C73.6814 55.236 72.9404 55.977 72.9404 57.535C72.9404 59.169 73.6244 59.929 74.7264 59.929ZM81.0117 62V53.26H83.7287V54.571C84.4127 53.526 85.4387 53.089 86.6547 53.089C88.4217 53.089 89.8847 54.096 89.8847 57.06V62H87.0347V57.25C87.0347 55.958 86.5597 55.369 85.6667 55.369C84.6027 55.369 83.8807 56.281 83.8617 58.618V62H81.0117ZM94.1475 62.152C92.2665 62.133 91.2785 61.088 91.2785 59.796C91.2785 57.668 93.0455 56.68 95.2305 56.68C95.8575 56.68 96.2755 56.718 96.7125 56.813C96.6555 55.597 96.1425 55.236 94.8695 55.236C93.9765 55.236 92.9505 55.369 92.0005 55.711V53.659C93.2165 53.241 94.4325 53.108 95.2875 53.108C98.2135 53.108 99.5625 54.248 99.5625 57.022V62H96.7125V61.069C96.1045 61.772 95.2115 62.171 94.1475 62.152ZM94.1285 59.302C94.1285 59.872 94.5465 60.214 95.1545 60.214C96.0665 60.214 96.6935 59.606 96.7125 58.561V58.314C96.3135 58.219 95.9525 58.181 95.4965 58.181C94.6605 58.181 94.1285 58.58 94.1285 59.302ZM101.592 62V49.555H104.442V62H101.592ZM110.889 62V51.17H113.796V59.53H117.881V62H110.889ZM119.346 51.93V49.555H122.196V51.93H119.346ZM119.346 62V53.26H122.196V62H119.346ZM124.469 62V49.555H127.319V54.001C127.946 53.431 128.782 53.07 129.865 53.07C131.898 53.07 133.722 54.514 133.722 57.535C133.722 60.613 131.86 62.095 129.789 62.095C128.592 62.095 127.699 61.696 127.072 61.012V62H124.469ZM129.067 59.929C130.093 59.929 130.777 59.207 130.777 57.611C130.777 55.977 130.093 55.236 129.067 55.236C128.003 55.236 127.224 55.977 127.224 57.535C127.224 59.169 127.927 59.929 129.067 59.929ZM135.321 62V53.26H138.038V54.533C138.665 53.564 139.596 53.165 140.565 53.165C140.812 53.165 141.135 53.203 141.401 53.298V55.692C141.135 55.578 140.831 55.559 140.375 55.559C139.14 55.559 138.19 56.338 138.171 58.618V62H135.321ZM144.913 62.152C143.032 62.133 142.044 61.088 142.044 59.796C142.044 57.668 143.811 56.68 145.996 56.68C146.623 56.68 147.041 56.718 147.478 56.813C147.421 55.597 146.908 55.236 145.635 55.236C144.742 55.236 143.716 55.369 142.766 55.711V53.659C143.982 53.241 145.198 53.108 146.053 53.108C148.979 53.108 150.328 54.248 150.328 57.022V62H147.478V61.069C146.87 61.772 145.977 62.171 144.913 62.152ZM144.894 59.302C144.894 59.872 145.312 60.214 145.92 60.214C146.832 60.214 147.459 59.606 147.478 58.561V58.314C147.079 58.219 146.718 58.181 146.262 58.181C145.426 58.181 144.894 58.58 144.894 59.302ZM152.243 62V53.26H154.96V54.533C155.587 53.564 156.518 53.165 157.487 53.165C157.734 53.165 158.057 53.203 158.323 53.298V55.692C158.057 55.578 157.753 55.559 157.297 55.559C156.062 55.559 155.112 56.338 155.093 58.618V62H152.243ZM160.194 65.211C159.947 65.211 159.719 65.173 159.548 65.135V63.178C159.757 63.216 160.061 63.216 160.327 63.216C161.258 63.216 161.942 63.026 162.436 62.475L158.978 53.26H161.904L163.766 58.998L165.571 53.26H168.459L165.609 61.24C164.621 63.995 163.424 65.211 160.194 65.211ZM177.908 62.095C175.115 62.095 173.234 60.651 173.234 57.592C173.234 54.533 175.134 53.07 178.003 53.07C180.815 53.07 182.658 54.514 182.658 57.535C182.658 60.613 180.777 62.095 177.908 62.095ZM177.965 59.929C179.029 59.929 179.713 59.226 179.713 57.611C179.713 55.977 179.029 55.236 177.965 55.236C176.92 55.236 176.179 55.977 176.179 57.535C176.179 59.169 176.863 59.929 177.965 59.929ZM184.953 62V55.407H183.661V53.298H184.953V52.709C184.953 50.258 186.416 49.422 188.468 49.422C189.076 49.422 189.665 49.479 190.083 49.593V51.474C189.76 51.436 189.323 51.398 188.981 51.398C188.164 51.398 187.803 51.702 187.803 52.804V53.298H190.083V55.407H187.803V62H184.953ZM195.721 62V51.17H198.628V62H195.721ZM203.4 62.19C202.26 62.19 201.348 61.981 200.588 61.544V59.473C201.519 60.005 202.716 60.119 203.4 60.119C204.198 60.119 204.464 59.853 204.464 59.473C204.464 58.96 204.008 58.808 203.248 58.58C201.424 58.067 200.55 57.364 200.55 55.882C200.55 54.153 202.051 53.032 204.331 53.032C205.224 53.032 206.269 53.203 206.877 53.564V55.654C206.25 55.35 205.034 55.141 204.274 55.141C203.609 55.141 203.172 55.331 203.172 55.711C203.172 56.205 203.647 56.395 204.502 56.604C206.307 57.041 207.219 57.687 207.219 59.245C207.219 61.259 205.528 62.19 203.4 62.19ZM208.965 62V53.26H211.682V54.533C212.309 53.564 213.24 53.165 214.209 53.165C214.456 53.165 214.779 53.203 215.045 53.298V55.692C214.779 55.578 214.475 55.559 214.019 55.559C212.784 55.559 211.834 56.338 211.815 58.618V62H208.965ZM218.557 62.152C216.676 62.133 215.688 61.088 215.688 59.796C215.688 57.668 217.455 56.68 219.64 56.68C220.267 56.68 220.685 56.718 221.122 56.813C221.065 55.597 220.552 55.236 219.279 55.236C218.386 55.236 217.36 55.369 216.41 55.711V53.659C217.626 53.241 218.842 53.108 219.697 53.108C222.623 53.108 223.972 54.248 223.972 57.022V62H221.122V61.069C220.514 61.772 219.621 62.171 218.557 62.152ZM218.538 59.302C218.538 59.872 218.956 60.214 219.564 60.214C220.476 60.214 221.103 59.606 221.122 58.561V58.314C220.723 58.219 220.362 58.181 219.906 58.181C219.07 58.181 218.538 58.58 218.538 59.302ZM230.333 62.171C227.16 62.171 225.317 61.202 225.317 57.592C225.317 54.533 227.141 53.07 230.029 53.07C232.594 53.07 234.171 54.324 234.171 56.965C234.171 57.402 234.133 57.858 234.076 58.314H228.281C228.471 59.72 229.288 60.005 230.77 60.005C231.758 60.005 232.708 59.853 233.696 59.587V61.658C232.423 62.038 231.188 62.171 230.333 62.171ZM229.877 55.122C229.174 55.122 228.528 55.616 228.3 56.699H231.207C231.112 55.54 230.618 55.122 229.877 55.122ZM235.946 62V49.555H238.796V62H235.946Z" fill="#000000"/>
</svg>
