<svg width="80" height="71" viewBox="230 0 280 71" fill="none" xmlns="http://www.w3.org/2000/svg">
<path d="M297.516 12.871C297.845 12.871 298.137 12.6516 298.247 12.3226C300.514 4.82796 309.398 3 326.507 3H341.387V12.871H322.742C307.606 12.871 301.391 16.5269 298.978 18.7204C298.613 19.1226 298.064 19.3785 297.516 19.4516C296.968 19.3785 296.456 19.1226 296.054 18.7204C293.641 16.5269 287.462 12.871 272.29 12.871H253.645V3H268.525C285.598 3 294.482 4.82796 296.748 12.3226C296.894 12.6151 297.15 12.8344 297.516 12.871ZM297.516 60.2882C297.041 60.2882 296.602 60.1419 296.236 59.8495C293.458 57.4366 285.525 51.9893 271.047 51.9893H253.645V61.8602H271.047C286.694 61.8602 291.447 68.3677 292.544 70.3785C292.763 70.7441 293.165 71 293.568 71H301.428C301.867 71 302.269 70.7806 302.488 70.3785C303.585 68.3677 308.337 61.8602 323.985 61.8602H341.387V51.9893H323.985C309.507 51.9893 301.574 57.4366 298.796 59.8495C298.43 60.1419 297.991 60.2882 297.516 60.2882Z" fill="#000000"/>
</svg>
